<svg width="145" height="40" viewBox="0 0 145 40" fill="none" xmlns="http://www.w3.org/2000/svg">
  <path d="M0 0.948717H145V40.9487H0V0.948717Z" fill="#FDE047" />
  <path
    d="M58.376 18.9713C59.388 18.9713 60.1653 19.2793 60.708 19.8953C61.2653 20.4966 61.544 21.3619 61.544 22.4913V29.5533H59.608V22.7333C59.608 22.0146 59.454 21.4646 59.146 21.0833C58.838 20.6873 58.4053 20.4893 57.848 20.4893C57.188 20.4893 56.616 20.7459 56.132 21.2593C55.6627 21.7579 55.3327 22.4326 55.142 23.2833V29.5533H53.206V22.7333C53.206 22.0146 53.052 21.4646 52.744 21.0833C52.436 20.6873 52.0033 20.4893 51.446 20.4893C50.786 20.4893 50.214 20.7533 49.73 21.2813C49.246 21.7946 48.916 22.4619 48.74 23.2833V29.5533H46.804V21.5233C46.804 21.2153 46.7453 20.9659 46.628 20.7753C46.5107 20.5699 46.298 20.3499 45.99 20.1153L47.266 18.9713C48.146 19.4113 48.6227 20.0786 48.696 20.9733C49.048 20.3279 49.5027 19.8366 50.06 19.4993C50.6173 19.1473 51.2553 18.9713 51.974 18.9713C52.7807 18.9713 53.4333 19.1766 53.932 19.5873C54.4453 19.9833 54.7827 20.5626 54.944 21.3253C55.208 20.6066 55.6407 20.0346 56.242 19.6093C56.858 19.1839 57.5693 18.9713 58.376 18.9713ZM68.8098 29.7953C67.3725 29.7953 66.2578 29.4506 65.4658 28.7613C64.6885 28.0573 64.2998 27.0673 64.2998 25.7913V22.9753C64.2998 21.6993 64.6885 20.7166 65.4658 20.0273C66.2578 19.3233 67.3725 18.9713 68.8098 18.9713C70.2472 18.9713 71.3545 19.3233 72.1318 20.0273C72.9092 20.7166 73.2978 21.6993 73.2978 22.9753V25.7913C73.2978 27.0673 72.9092 28.0573 72.1318 28.7613C71.3545 29.4506 70.2472 29.7953 68.8098 29.7953ZM68.8098 28.2773C69.6165 28.2773 70.2398 28.0646 70.6798 27.6393C71.1345 27.1993 71.3618 26.5833 71.3618 25.7913V22.9753C71.3618 22.1833 71.1345 21.5746 70.6798 21.1493C70.2398 20.7093 69.6165 20.4893 68.8098 20.4893C67.9885 20.4893 67.3505 20.7093 66.8958 21.1493C66.4558 21.5746 66.2358 22.1833 66.2358 22.9753V25.7913C66.2358 26.5833 66.4558 27.1993 66.8958 27.6393C67.3505 28.0646 67.9885 28.2773 68.8098 28.2773ZM80.218 29.7953C78.7807 29.7953 77.666 29.4506 76.874 28.7613C76.0967 28.0573 75.708 27.0673 75.708 25.7913V22.9753C75.708 21.6993 76.0967 20.7166 76.874 20.0273C77.666 19.3233 78.7807 18.9713 80.218 18.9713C81.6554 18.9713 82.7627 19.3233 83.54 20.0273C84.3174 20.7166 84.706 21.6993 84.706 22.9753V25.7913C84.706 27.0673 84.3174 28.0573 83.54 28.7613C82.7627 29.4506 81.6554 29.7953 80.218 29.7953ZM80.218 28.2773C81.0247 28.2773 81.648 28.0646 82.088 27.6393C82.5427 27.1993 82.77 26.5833 82.77 25.7913V22.9753C82.77 22.1833 82.5427 21.5746 82.088 21.1493C81.648 20.7093 81.0247 20.4893 80.218 20.4893C79.3967 20.4893 78.7587 20.7093 78.304 21.1493C77.864 21.5746 77.644 22.1833 77.644 22.9753V25.7913C77.644 26.5833 77.864 27.1993 78.304 27.6393C78.7587 28.0646 79.3967 28.2773 80.218 28.2773ZM96.4274 29.5533H94.4474L93.5014 25.9673C93.3401 25.4099 93.1054 24.9993 92.7974 24.7353C92.5041 24.4713 92.0347 24.3099 91.3894 24.2513L89.4314 26.2313V29.5533H87.4954V16.0013C87.4954 15.6786 87.4367 15.4219 87.3194 15.2313C87.2167 15.0406 87.0041 14.8206 86.6814 14.5713L88.0014 13.4273C88.5294 13.7206 88.8961 14.0579 89.1014 14.4393C89.3214 14.8206 89.4314 15.3413 89.4314 16.0013V23.8553L94.0074 19.2133H96.4054L92.7754 22.8653C93.4941 23.0119 94.0587 23.3273 94.4694 23.8113C94.8801 24.2806 95.2174 24.9993 95.4814 25.9673L96.4274 29.5533ZM104.055 29.7953C102.53 29.7953 101.408 29.2819 100.689 28.2553V29.5533H98.7532V16.0013C98.7532 15.6786 98.6946 15.4219 98.5772 15.2313C98.4746 15.0406 98.2619 14.8206 97.9392 14.5713L99.2152 13.4273C99.7726 13.7206 100.154 14.0579 100.359 14.4393C100.579 14.8059 100.689 15.3266 100.689 16.0013V20.5553C101.437 19.4993 102.552 18.9713 104.033 18.9713C104.957 18.9713 105.757 19.1913 106.431 19.6313C107.121 20.0566 107.649 20.6506 108.015 21.4133C108.382 22.1759 108.565 23.0486 108.565 24.0313V24.7353C108.565 25.7179 108.382 26.5906 108.015 27.3533C107.663 28.1159 107.143 28.7173 106.453 29.1573C105.779 29.5826 104.979 29.7953 104.055 29.7953ZM103.593 28.2773C104.517 28.2773 105.251 27.9473 105.793 27.2873C106.351 26.6273 106.629 25.7766 106.629 24.7353V24.0313C106.629 22.9899 106.351 22.1393 105.793 21.4793C105.251 20.8193 104.517 20.4893 103.593 20.4893C102.097 20.4893 101.129 21.2153 100.689 22.6673V26.0993C101.129 27.5513 102.097 28.2773 103.593 28.2773ZM119.356 27.2433C119.356 27.5513 119.414 27.8079 119.532 28.0133C119.649 28.2039 119.862 28.4166 120.17 28.6513L118.872 29.7953C118.124 29.4139 117.669 28.8713 117.508 28.1673C117.156 28.6659 116.664 29.0619 116.034 29.3553C115.418 29.6486 114.706 29.7953 113.9 29.7953C112.8 29.7953 111.949 29.5386 111.348 29.0253C110.746 28.4973 110.446 27.7419 110.446 26.7593C110.446 25.7473 110.798 24.9919 111.502 24.4933C112.206 23.9946 113.174 23.6793 114.406 23.5473L115.902 23.3713C116.532 23.2979 116.943 23.1879 117.134 23.0413C117.339 22.8799 117.434 22.6086 117.42 22.2273C117.361 21.6553 117.126 21.2006 116.716 20.8633C116.32 20.5259 115.711 20.3573 114.89 20.3573C114.288 20.3573 113.775 20.4599 113.35 20.6653C112.924 20.8559 112.536 21.1713 112.184 21.6113L110.864 20.6653C111.23 20.1079 111.736 19.6899 112.382 19.4113C113.042 19.1179 113.878 18.9713 114.89 18.9713C116.371 18.9713 117.486 19.2793 118.234 19.8953C118.982 20.5113 119.356 21.4059 119.356 22.5793V27.2433ZM114.362 28.3653C115.286 28.3653 116.026 28.1233 116.584 27.6393C117.156 27.1553 117.442 26.5393 117.442 25.7913V24.3173C117.104 24.5079 116.584 24.6326 115.88 24.6913L114.582 24.8233C113.056 24.9993 112.294 25.6226 112.294 26.6933C112.294 27.2359 112.47 27.6539 112.822 27.9473C113.174 28.2259 113.687 28.3653 114.362 28.3653ZM127.727 18.9713C128.358 18.9713 128.886 19.1253 129.311 19.4333L128.827 21.1273C128.329 20.8339 127.801 20.6873 127.243 20.6873C126.583 20.6873 126.019 20.9659 125.549 21.5233C125.08 22.0806 124.735 22.8286 124.515 23.7673V29.5533H122.579V21.5233C122.579 21.2153 122.521 20.9659 122.403 20.7753C122.286 20.5699 122.073 20.3499 121.765 20.1153L123.063 18.9713C123.577 19.2499 123.936 19.5579 124.141 19.8953C124.361 20.2179 124.486 20.6726 124.515 21.2593C124.838 20.5406 125.271 19.9833 125.813 19.5873C126.356 19.1766 126.994 18.9713 127.727 18.9713ZM140.062 29.5533H138.082L137.136 25.9673C136.975 25.4099 136.74 24.9993 136.432 24.7353C136.139 24.4713 135.67 24.3099 135.024 24.2513L133.066 26.2313V29.5533H131.13V16.0013C131.13 15.6786 131.072 15.4219 130.954 15.2313C130.852 15.0406 130.639 14.8206 130.316 14.5713L131.636 13.4273C132.164 13.7206 132.531 14.0579 132.736 14.4393C132.956 14.8206 133.066 15.3413 133.066 16.0013V23.8553L137.642 19.2133H140.04L136.41 22.8653C137.129 23.0119 137.694 23.3273 138.104 23.8113C138.515 24.2806 138.852 24.9993 139.116 25.9673L140.062 29.5533Z"
    fill="#713F12" />
  <path
    d="M58.376 13.4236C59.388 13.4236 60.1653 13.7316 60.708 14.3476C61.2653 14.9489 61.544 15.8143 61.544 16.9436V24.0056H59.608V17.1856C59.608 16.4669 59.454 15.9169 59.146 15.5356C58.838 15.1396 58.4053 14.9416 57.848 14.9416C57.188 14.9416 56.616 15.1983 56.132 15.7116C55.6627 16.2103 55.3327 16.8849 55.142 17.7356V24.0056H53.206V17.1856C53.206 16.4669 53.052 15.9169 52.744 15.5356C52.436 15.1396 52.0033 14.9416 51.446 14.9416C50.786 14.9416 50.214 15.2056 49.73 15.7336C49.246 16.2469 48.916 16.9143 48.74 17.7356V24.0056H46.804V15.9756C46.804 15.6676 46.7453 15.4183 46.628 15.2276C46.5107 15.0223 46.298 14.8023 45.99 14.5676L47.266 13.4236C48.146 13.8636 48.6227 14.5309 48.696 15.4256C49.048 14.7803 49.5027 14.2889 50.06 13.9516C50.6173 13.5996 51.2553 13.4236 51.974 13.4236C52.7807 13.4236 53.4333 13.6289 53.932 14.0396C54.4453 14.4356 54.7827 15.0149 54.944 15.7776C55.208 15.059 55.6407 14.4869 56.242 14.0616C56.858 13.6363 57.5693 13.4236 58.376 13.4236ZM68.8098 24.2476C67.3725 24.2476 66.2578 23.903 65.4658 23.2136C64.6885 22.5096 64.2998 21.5196 64.2998 20.2436V17.4276C64.2998 16.1516 64.6885 15.1689 65.4658 14.4796C66.2578 13.7756 67.3725 13.4236 68.8098 13.4236C70.2472 13.4236 71.3545 13.7756 72.1318 14.4796C72.9092 15.1689 73.2978 16.1516 73.2978 17.4276V20.2436C73.2978 21.5196 72.9092 22.5096 72.1318 23.2136C71.3545 23.903 70.2472 24.2476 68.8098 24.2476ZM68.8098 22.7296C69.6165 22.7296 70.2398 22.517 70.6798 22.0916C71.1345 21.6516 71.3618 21.0356 71.3618 20.2436V17.4276C71.3618 16.6356 71.1345 16.0269 70.6798 15.6016C70.2398 15.1616 69.6165 14.9416 68.8098 14.9416C67.9885 14.9416 67.3505 15.1616 66.8958 15.6016C66.4558 16.0269 66.2358 16.6356 66.2358 17.4276V20.2436C66.2358 21.0356 66.4558 21.6516 66.8958 22.0916C67.3505 22.517 67.9885 22.7296 68.8098 22.7296ZM80.218 24.2476C78.7807 24.2476 77.666 23.903 76.874 23.2136C76.0967 22.5096 75.708 21.5196 75.708 20.2436V17.4276C75.708 16.1516 76.0967 15.1689 76.874 14.4796C77.666 13.7756 78.7807 13.4236 80.218 13.4236C81.6554 13.4236 82.7627 13.7756 83.54 14.4796C84.3174 15.1689 84.706 16.1516 84.706 17.4276V20.2436C84.706 21.5196 84.3174 22.5096 83.54 23.2136C82.7627 23.903 81.6554 24.2476 80.218 24.2476ZM80.218 22.7296C81.0247 22.7296 81.648 22.517 82.088 22.0916C82.5427 21.6516 82.77 21.0356 82.77 20.2436V17.4276C82.77 16.6356 82.5427 16.0269 82.088 15.6016C81.648 15.1616 81.0247 14.9416 80.218 14.9416C79.3967 14.9416 78.7587 15.1616 78.304 15.6016C77.864 16.0269 77.644 16.6356 77.644 17.4276V20.2436C77.644 21.0356 77.864 21.6516 78.304 22.0916C78.7587 22.517 79.3967 22.7296 80.218 22.7296ZM96.4274 24.0056H94.4474L93.5014 20.4196C93.3401 19.8623 93.1054 19.4516 92.7974 19.1876C92.5041 18.9236 92.0347 18.7623 91.3894 18.7036L89.4314 20.6836V24.0056H87.4954V10.4536C87.4954 10.1309 87.4367 9.87428 87.3194 9.68362C87.2167 9.49295 87.0041 9.27295 86.6814 9.02362L88.0014 7.87962C88.5294 8.17295 88.8961 8.51028 89.1014 8.89162C89.3214 9.27295 89.4314 9.79362 89.4314 10.4536V18.3076L94.0074 13.6656H96.4054L92.7754 17.3176C93.4941 17.4643 94.0587 17.7796 94.4694 18.2636C94.8801 18.7329 95.2174 19.4516 95.4814 20.4196L96.4274 24.0056ZM104.055 24.2476C102.53 24.2476 101.408 23.7343 100.689 22.7076V24.0056H98.7532V10.4536C98.7532 10.1309 98.6946 9.87428 98.5772 9.68362C98.4746 9.49295 98.2619 9.27295 97.9392 9.02362L99.2152 7.87962C99.7726 8.17295 100.154 8.51028 100.359 8.89162C100.579 9.25828 100.689 9.77895 100.689 10.4536V15.0076C101.437 13.9516 102.552 13.4236 104.033 13.4236C104.957 13.4236 105.757 13.6436 106.431 14.0836C107.121 14.5089 107.649 15.1029 108.015 15.8656C108.382 16.6283 108.565 17.5009 108.565 18.4836V19.1876C108.565 20.1703 108.382 21.043 108.015 21.8056C107.663 22.5683 107.143 23.1696 106.453 23.6096C105.779 24.035 104.979 24.2476 104.055 24.2476ZM103.593 22.7296C104.517 22.7296 105.251 22.3996 105.793 21.7396C106.351 21.0796 106.629 20.229 106.629 19.1876V18.4836C106.629 17.4423 106.351 16.5916 105.793 15.9316C105.251 15.2716 104.517 14.9416 103.593 14.9416C102.097 14.9416 101.129 15.6676 100.689 17.1196V20.5516C101.129 22.0036 102.097 22.7296 103.593 22.7296ZM119.356 21.6956C119.356 22.0036 119.414 22.2603 119.532 22.4656C119.649 22.6563 119.862 22.869 120.17 23.1036L118.872 24.2476C118.124 23.8663 117.669 23.3236 117.508 22.6196C117.156 23.1183 116.664 23.5143 116.034 23.8076C115.418 24.101 114.706 24.2476 113.9 24.2476C112.8 24.2476 111.949 23.991 111.348 23.4776C110.746 22.9496 110.446 22.1943 110.446 21.2116C110.446 20.1996 110.798 19.4443 111.502 18.9456C112.206 18.447 113.174 18.1316 114.406 17.9996L115.902 17.8236C116.532 17.7503 116.943 17.6403 117.134 17.4936C117.339 17.3323 117.434 17.061 117.42 16.6796C117.361 16.1076 117.126 15.653 116.716 15.3156C116.32 14.9783 115.711 14.8096 114.89 14.8096C114.288 14.8096 113.775 14.9123 113.35 15.1176C112.924 15.3083 112.536 15.6236 112.184 16.0636L110.864 15.1176C111.23 14.5603 111.736 14.1423 112.382 13.8636C113.042 13.5703 113.878 13.4236 114.89 13.4236C116.371 13.4236 117.486 13.7316 118.234 14.3476C118.982 14.9636 119.356 15.8583 119.356 17.0316V21.6956ZM114.362 22.8176C115.286 22.8176 116.026 22.5756 116.584 22.0916C117.156 21.6076 117.442 20.9916 117.442 20.2436V18.7696C117.104 18.9603 116.584 19.0849 115.88 19.1436L114.582 19.2756C113.056 19.4516 112.294 20.075 112.294 21.1456C112.294 21.6883 112.47 22.1063 112.822 22.3996C113.174 22.6783 113.687 22.8176 114.362 22.8176ZM127.727 13.4236C128.358 13.4236 128.886 13.5776 129.311 13.8856L128.827 15.5796C128.329 15.2863 127.801 15.1396 127.243 15.1396C126.583 15.1396 126.019 15.4183 125.549 15.9756C125.08 16.5329 124.735 17.2809 124.515 18.2196V24.0056H122.579V15.9756C122.579 15.6676 122.521 15.4183 122.403 15.2276C122.286 15.0223 122.073 14.8023 121.765 14.5676L123.063 13.4236C123.577 13.7023 123.936 14.0103 124.141 14.3476C124.361 14.6703 124.486 15.1249 124.515 15.7116C124.838 14.9929 125.271 14.4356 125.813 14.0396C126.356 13.6289 126.994 13.4236 127.727 13.4236ZM140.062 24.0056H138.082L137.136 20.4196C136.975 19.8623 136.74 19.4516 136.432 19.1876C136.139 18.9236 135.67 18.7623 135.024 18.7036L133.066 20.6836V24.0056H131.13V10.4536C131.13 10.1309 131.072 9.87428 130.954 9.68362C130.852 9.49295 130.639 9.27295 130.316 9.02362L131.636 7.87962C132.164 8.17295 132.531 8.51028 132.736 8.89162C132.956 9.27295 133.066 9.79362 133.066 10.4536V18.3076L137.642 13.6656H140.04L136.41 17.3176C137.129 17.4643 137.694 17.7796 138.104 18.2636C138.515 18.7329 138.852 19.4516 139.116 20.4196L140.062 24.0056Z"
    fill="#713F12" />
  <path
    d="M23.0214 8.19865C12.7755 3.29253 5.32391 -0.149426 10.9126 27.6519L22.5326 26.3676L29.4327 36C38.0998 17.6861 53.2775 -5.65619 23.0214 8.19865Z"
    fill="#FDE047" stroke="#713F12" stroke-width="4" />
  <path d="M14.1447 16.1239C18.1144 7.15578 22.411 12.2227 23.4019 15.8936" stroke="#713F12" />
  <path d="M25.8606 17.5886C29.9822 8.67824 34.1922 13.8059 35.1205 17.4906" stroke="#713F12" />
  <path
    d="M22 16.8647C22 17.904 21.0031 18.7464 19.7733 18.7464C18.5435 18.7464 17.5466 17.904 17.5466 16.8647C17.5466 15.8254 16.3168 12 17.5466 12C18.7763 12 22 15.8254 22 16.8647Z"
    fill="#CA8A04" />
  <path
    d="M32 18C32 18.7055 30.4994 19.5 29.5 19.5C28.5006 19.5 28 18.4281 28 17.7226C28 17.0172 31.7321 14 32.7315 14C33.7308 14 32 17.2945 32 18Z"
    fill="#CA8A04" />
  <path
    d="M18.3506 19.4883C20.2135 20.3424 27.665 22.0508 29.5279 21.1966C31.3908 20.3424 29.5279 22.905 29.5279 22.905C29.5279 22.905 30.4594 22.905 20.2135 22.905C9.96754 22.905 16.4877 18.6341 18.3506 19.4883Z"
    fill="#713F12" />
</svg>
