<?xml version="1.0" standalone="no"?>
<!DOCTYPE svg PUBLIC "-//W3C//DTD SVG 20010904//EN"
 "http://www.w3.org/TR/2001/REC-SVG-20010904/DTD/svg10.dtd">
<svg version="1.0" xmlns="http://www.w3.org/2000/svg"
 width="608.000000pt" height="608.000000pt" viewBox="0 0 608.000000 608.000000"
 preserveAspectRatio="xMidYMid meet">
<metadata>
Created by potrace 1.14, written by Peter Selinger 2001-2017
</metadata>
<g transform="translate(0.000000,608.000000) scale(0.100000,-0.100000)"
fill="#000000" stroke="none">
<path d="M4738 6075 c-2 -2 -31 -6 -63 -9 -76 -6 -138 -14 -195 -26 -25 -6
-61 -12 -80 -15 -19 -3 -62 -12 -95 -21 -33 -8 -71 -16 -84 -19 -13 -2 -49
-12 -80 -21 -31 -9 -66 -18 -79 -20 -13 -3 -42 -11 -65 -18 -23 -8 -76 -24
-117 -36 -41 -12 -84 -26 -95 -30 -11 -5 -54 -20 -95 -34 -93 -31 -357 -128
-425 -157 -16 -7 -32 -13 -35 -14 -3 -1 -22 -9 -44 -18 -21 -9 -45 -17 -52
-17 -8 0 -14 -4 -14 -8 0 -4 -10 -8 -21 -9 -12 -1 -29 -9 -38 -17 -10 -9 -22
-16 -28 -16 -6 0 -32 -9 -57 -20 -26 -11 -49 -19 -51 -19 -3 0 -18 -7 -33 -15
-64 -34 -148 -69 -164 -68 -10 0 -50 16 -90 35 -483 228 -727 325 -998 396
-121 32 -157 38 -305 56 -74 10 -196 9 -261 0 -27 -4 -56 -8 -64 -9 -45 -6
-99 -21 -166 -46 -211 -79 -388 -247 -501 -475 -28 -56 -90 -225 -98 -268 -3
-10 -6 -26 -9 -35 -3 -9 -7 -29 -10 -45 -3 -15 -7 -35 -10 -45 -3 -9 -7 -35
-11 -57 -3 -22 -10 -67 -15 -100 -19 -122 -25 -237 -24 -515 1 -317 10 -493
39 -755 3 -22 7 -60 9 -85 2 -25 7 -65 11 -90 3 -25 7 -61 9 -80 6 -58 16
-134 21 -155 2 -11 7 -47 10 -80 3 -33 9 -69 12 -79 3 -11 7 -34 9 -50 4 -41
12 -95 19 -128 3 -16 7 -40 9 -55 6 -39 15 -95 32 -193 8 -47 17 -96 19 -110
2 -14 11 -65 20 -115 24 -125 24 -127 30 -155 2 -14 7 -38 10 -55 3 -16 7 -41
10 -55 3 -14 12 -59 20 -100 20 -99 33 -166 40 -200 1 -3 5 -25 10 -50 5 -25
10 -48 11 -52 1 -5 2 -17 3 -27 1 -22 29 -54 41 -46 4 2 29 7 56 10 27 3 65 8
84 10 19 2 64 6 100 9 36 4 76 8 90 10 23 4 71 10 185 22 22 2 58 6 80 9 22 3
63 7 90 9 28 3 68 7 90 10 22 3 65 7 95 11 30 3 71 7 90 9 19 3 64 8 100 11
36 4 72 8 80 10 9 2 45 6 80 9 36 4 81 9 100 11 19 3 62 7 95 10 57 6 102 11
170 19 17 2 59 7 95 10 36 4 81 9 100 12 19 2 62 6 96 9 l61 6 26 -38 c37 -54
76 -108 202 -282 61 -84 115 -160 120 -169 6 -9 12 -19 15 -22 3 -3 68 -93
145 -200 76 -107 143 -199 147 -205 40 -51 78 -107 78 -114 0 -5 4 -11 8 -13
5 -2 29 -31 53 -66 75 -109 128 -183 309 -433 96 -133 179 -250 184 -261 9
-17 38 -26 34 -10 -1 7 23 59 127 277 125 261 169 354 196 413 16 34 229 464
473 955 244 491 465 936 490 990 156 331 200 424 242 520 21 45 50 110 66 145
15 34 28 64 28 67 0 2 11 28 24 57 13 29 36 82 50 118 27 65 37 90 56 133 9
22 53 138 55 147 1 3 7 19 14 35 7 17 22 57 33 90 10 33 24 69 29 80 12 26 85
258 99 315 6 25 17 61 25 81 8 20 12 39 9 42 -3 3 -1 14 4 24 6 10 13 34 16
54 3 20 8 42 10 50 3 8 7 30 10 49 3 19 10 58 15 85 19 101 25 183 26 330 0
161 -8 241 -36 340 -53 189 -152 342 -295 456 -107 84 -287 157 -459 184 -44
7 -381 16 -387 10z"/>
</g>
</svg>
